<svg xmlns="http://www.w3.org/2000/svg" xml:space="preserve" viewBox="0 0 512.001 512.001">
  <path d="m289.173 393.417-9.616-7.315a7.838 7.838 0 0 0-9.49 12.475l7.01 5.332-34.11 25.948-17.912-12.884a40.39 40.39 0 0 0 1.329-4.904h10.112c4.329 0 7.837-3.509 7.837-7.837s-3.508-7.837-7.837-7.837h-9.993a40.712 40.712 0 0 0-1.447-5.554l17.912-12.883 6.195 4.714a7.836 7.836 0 1 0 9.49-12.473l-7.655-5.825a13.267 13.267 0 0 0-7.988-2.693c-2.777 0-5.44.857-7.704 2.483l-18.074 12.999a41.444 41.444 0 0 0-3.421-3.529l11.934-15.656c3.542-4.648 3.628-10.955.211-15.698l-29.072-40.337a13.152 13.152 0 0 0-2.539-2.621v-87.715a36.62 36.62 0 0 0 6.117-1.894 7.838 7.838 0 0 0-5.95-14.5 20.965 20.965 0 0 1-8.002 1.568c-11.616 0-21.067-9.438-21.067-21.039 0-11.602 9.451-21.039 21.067-21.039s21.067 9.438 21.067 21.039c0 1.761-.216 3.506-.643 5.186a7.837 7.837 0 0 0 5.669 9.524c4.193 1.067 8.458-1.472 9.523-5.667a36.792 36.792 0 0 0 1.124-9.043c0-20.244-16.481-36.713-36.741-36.713s-36.741 16.469-36.741 36.713c0 17.555 12.399 32.264 28.904 35.863v87.224a13.14 13.14 0 0 0-3.191 3.115l-29.066 40.334c-3.422 4.744-3.337 11.055.208 15.701l11.933 15.655a41.893 41.893 0 0 0-2.675 2.673l-15.679-11.926a13.258 13.258 0 0 0-7.993-2.698c-2.781 0-5.445.859-7.702 2.483L84.123 393.21c-3.432 2.471-5.482 6.471-5.482 10.7s2.05 8.23 5.486 10.702l40.379 29.041a13.106 13.106 0 0 0 7.703 2.483c2.873 0 5.712-.957 7.988-2.693l15.686-11.933a41.47 41.47 0 0 0 3.532 3.42l-13 18.039c-3.422 4.744-3.337 11.055.208 15.701l29.069 38.138a13.268 13.268 0 0 0 10.492 5.194c4.09 0 8.011-1.941 10.49-5.193l29.071-38.138c3.542-4.648 3.628-10.955.211-15.698l-13.004-18.043a41.344 41.344 0 0 0 4.28-4.277l18.08 13.004a13.129 13.129 0 0 0 7.699 2.479c2.868 0 5.705-.956 7.988-2.693l38.172-29.04a13.255 13.255 0 0 0 5.206-10.494 13.258 13.258 0 0 0-5.204-10.492zM135.867 412.07h10.111a40.485 40.485 0 0 0 1.701 5.986l-15.513 11.8-36.076-25.948 36.077-25.947 15.513 11.8a40.606 40.606 0 0 0-1.818 6.635h-9.993a7.837 7.837 0 0 0-7.837 7.837 7.835 7.835 0 0 0 7.835 7.837zm50.314-98.169 25.977 36.045-11.808 15.494a40.67 40.67 0 0 0-6.332-1.763v-9.708c0-4.328-3.508-7.837-7.837-7.837s-7.837 3.509-7.837 7.837v9.708a40.705 40.705 0 0 0-6.33 1.762l-11.808-15.493 25.975-36.045zm25.352 90.006c0 13.96-11.373 25.317-25.351 25.317s-25.349-11.357-25.349-25.317 11.372-25.317 25.349-25.317c13.979.001 25.351 11.358 25.351 25.317zm-25.35 90.807-25.975-34.078 12.892-17.889a40.64 40.64 0 0 0 5.245 1.391v10.36a7.837 7.837 0 0 0 7.837 7.837 7.837 7.837 0 0 0 7.837-7.837v-10.36a40.54 40.54 0 0 0 5.249-1.392l12.893 17.889-25.978 34.079z"/>
  <path style="fill:#a11;" d="M115.165 257.603c-12.151-3.313-12.753-3.907-16.094-15.868-1.457-5.214-6.27-8.856-11.707-8.856-5.437 0-10.252 3.641-11.707 8.854-3.343 11.962-3.943 12.555-16.092 15.87-5.266 1.436-8.945 6.234-8.945 11.669 0 5.431 3.677 10.23 8.944 11.669 12.15 3.313 12.751 3.907 16.094 15.868 1.458 5.215 6.271 8.858 11.707 8.858 5.436-.002 10.25-3.645 11.707-8.86 3.341-11.96 3.941-12.553 16.097-15.868 5.26-1.438 8.935-6.235 8.935-11.668 0-5.435-3.676-10.233-8.939-11.668zm-27.801 25.113c-2.968-6.683-6.772-10.493-13.453-13.444 6.682-2.953 10.484-6.76 13.453-13.445 2.969 6.683 6.772 10.492 13.454 13.445-6.682 2.952-10.486 6.761-13.454 13.444zm368.815-28.329-38.177-29.042a13.264 13.264 0 0 0-7.987-2.693c-2.779 0-5.442.858-7.704 2.483l-18.074 12.999a41.311 41.311 0 0 0-3.422-3.53l11.935-15.656c3.542-4.648 3.628-10.955.211-15.698l-29.067-40.332a13.105 13.105 0 0 0-2.544-2.628v-26.544a7.837 7.837 0 0 0-7.837-7.837 7.837 7.837 0 0 0-7.837 7.837v26.052a13.154 13.154 0 0 0-3.191 3.114l-29.069 40.338c-3.417 4.742-3.331 11.049.211 15.695l11.933 15.656a41.604 41.604 0 0 0-2.674 2.672l-15.684-11.931a13.27 13.27 0 0 0-7.988-2.693c-2.785 0-5.449.859-7.704 2.483l-40.383 29.044a13.218 13.218 0 0 0-5.482 10.7c0 4.229 2.05 8.23 5.486 10.702l40.379 29.041a13.11 13.11 0 0 0 7.705 2.483c2.868 0 5.705-.956 7.988-2.693l15.685-11.932a41.164 41.164 0 0 0 3.532 3.419l-13.003 18.043c-3.417 4.742-3.331 11.049.211 15.696l29.069 38.138a13.268 13.268 0 0 0 10.492 5.194c4.095 0 8.018-1.944 10.49-5.193l29.071-38.138c3.542-4.648 3.628-10.955.211-15.698l-13.004-18.043a41.344 41.344 0 0 0 4.28-4.277l18.08 13.004a13.128 13.128 0 0 0 7.699 2.478c2.868 0 5.705-.956 7.987-2.693l38.178-29.043a13.257 13.257 0 0 0 5.199-10.49 13.26 13.26 0 0 0-5.201-10.487zm-153.308 18.652h10.112a40.607 40.607 0 0 0 1.701 5.986l-15.511 11.8-36.078-25.948 36.078-25.948 15.511 11.8a40.59 40.59 0 0 0-1.818 6.636h-9.994a7.837 7.837 0 0 0-7.837 7.837 7.836 7.836 0 0 0 7.836 7.837zm50.314-98.168 25.977 36.045-11.807 15.493a40.744 40.744 0 0 0-6.333-1.763v-9.708a7.837 7.837 0 0 0-7.837-7.837 7.837 7.837 0 0 0-7.837 7.837v9.708a40.662 40.662 0 0 0-6.329 1.762l-11.809-15.492 25.975-36.045zm25.352 90.006c0 13.96-11.373 25.316-25.351 25.316s-25.349-11.357-25.349-25.316c0-13.96 11.372-25.317 25.349-25.317 13.979.001 25.351 11.358 25.351 25.317zm-25.35 90.807-25.975-34.078 12.892-17.889a40.612 40.612 0 0 0 5.246 1.391v10.36a7.837 7.837 0 0 0 7.837 7.837 7.837 7.837 0 0 0 7.837-7.837v-10.36a40.583 40.583 0 0 0 5.249-1.392l12.893 17.89-25.979 34.078zm56.785-64.858-17.911-12.884a40.44 40.44 0 0 0 1.329-4.904h10.111a7.837 7.837 0 0 0 7.837-7.837 7.837 7.837 0 0 0-7.837-7.837h-9.993a40.622 40.622 0 0 0-1.447-5.553l17.912-12.883 34.112 25.948-34.113 25.95zM353.512 0c-20.26 0-36.741 16.469-36.741 36.713 0 17.555 12.399 32.264 28.904 35.863v34.004c0 4.328 3.508 7.837 7.837 7.837s7.837-3.509 7.837-7.837V72.575c16.506-3.599 28.906-18.308 28.906-35.863C390.255 16.469 373.772 0 353.512 0zm0 57.752c-11.616 0-21.067-9.438-21.067-21.039s9.451-21.039 21.067-21.039c11.617 0 21.069 9.438 21.069 21.039s-9.452 21.039-21.069 21.039zm91.986 337.744c-12.151-3.313-12.753-3.907-16.094-15.869-1.457-5.214-6.27-8.855-11.707-8.855-5.442 0-10.257 3.645-11.707 8.854-3.343 11.962-3.943 12.555-16.09 15.869-5.269 1.435-8.95 6.234-8.95 11.669 0 5.433 3.679 10.232 8.946 11.668 12.15 3.313 12.752 3.907 16.091 15.859 1.453 5.219 6.267 8.865 11.709 8.865 5.436 0 10.25-3.643 11.707-8.858 3.341-11.961 3.942-12.553 16.099-15.868 5.258-1.438 8.931-6.236 8.931-11.667.001-5.432-3.672-10.23-8.935-11.667zm-27.801 25.113c-2.969-6.683-6.773-10.492-13.454-13.444 6.681-2.953 10.484-6.76 13.454-13.445 2.969 6.684 6.773 10.493 13.453 13.445-6.681 2.952-10.485 6.762-13.453 13.444z"/>
</svg>