<?xml version="1.0" standalone="no"?>
<!DOCTYPE svg PUBLIC "-//W3C//DTD SVG 20010904//EN"
 "http://www.w3.org/TR/2001/REC-SVG-20010904/DTD/svg10.dtd">
<svg version="1.0" xmlns="http://www.w3.org/2000/svg"
 width="551.000000pt" height="551.000000pt" viewBox="0 0 551.000000 551.000000"
 preserveAspectRatio="xMidYMid meet">

<g transform="translate(0.000000,551.000000) scale(0.100000,-0.100000)"
fill="#000000" stroke="none">
<path d="M1653 4847 c-84 -77 -103 -99 -97 -109 4 -6 3 -8 -3 -5 -5 3 -34 -20
-64 -51 -50 -52 -78 -82 -174 -192 -84 -96 -220 -318 -258 -423 -33 -91 -77
-244 -82 -287 -11 -90 -21 -150 -27 -155 -3 -3 -21 35 -39 84 -19 49 -37 87
-41 84 -5 -2 -8 6 -8 19 -1 62 -185 313 -230 313 -17 0 -26 -7 -30 -25 -9 -38
-1 -488 9 -545 39 -208 99 -316 245 -444 l39 -33 -18 -102 c-12 -67 -19 -164
-21 -286 -2 -102 -3 -188 -4 -193 0 -4 -17 0 -37 8 -87 37 -191 55 -310 55
-65 0 -151 6 -190 14 -40 7 -73 11 -73 9 0 -3 -7 0 -15 7 -8 6 -19 9 -25 5 -6
-4 -16 -2 -23 3 -11 9 -73 17 -104 13 -28 -3 3 -33 80 -78 45 -26 85 -52 89
-58 4 -5 8 -6 8 -2 0 15 237 -171 311 -245 91 -89 116 -118 201 -230 36 -48
68 -85 71 -82 3 3 8 -3 11 -14 13 -41 162 -147 243 -172 29 -9 55 -18 58 -21
3 -3 15 -50 26 -105 20 -94 92 -275 127 -317 9 -9 13 -19 11 -21 -2 -2 -80 -1
-173 4 -199 8 -386 -1 -439 -23 -50 -21 -50 -49 1 -70 20 -8 73 -31 118 -49
44 -19 129 -63 188 -99 60 -35 111 -62 114 -61 2 2 8 0 11 -5 11 -15 62 -34
73 -27 7 4 8 2 4 -4 -4 -7 -2 -12 5 -12 7 0 0 -13 -16 -30 -25 -26 -26 -31
-14 -47 21 -27 47 -53 55 -53 3 0 33 -18 66 -40 33 -22 62 -40 65 -40 3 0 18
-9 34 -21 16 -11 34 -17 40 -13 7 4 9 3 6 -3 -12 -19 304 -172 386 -187 15 -2
30 -7 35 -9 4 -3 28 -8 52 -12 25 -3 60 -11 78 -16 38 -12 195 -6 269 11 66
16 91 26 213 81 l105 48 95 -15 c52 -8 122 -14 155 -14 33 0 75 -3 93 -6 28
-5 112 0 344 21 119 12 268 48 268 67 0 10 -32 8 -126 -10 -152 -30 -352 -44
-519 -38 -211 8 -252 11 -290 20 -30 7 -73 55 -111 126 -10 19 -21 37 -24 40
-10 9 -70 146 -70 159 0 7 -5 9 -12 5 -6 -4 -8 -3 -4 4 3 6 -2 34 -13 62 -11
28 -25 83 -31 123 -6 39 -19 106 -27 147 -9 41 -17 89 -19 107 -2 18 -12 62
-23 99 -12 36 -21 75 -21 86 0 12 -4 17 -12 12 -7 -4 -8 -3 -4 5 8 12 -20 94
-53 159 -22 43 -54 75 -80 79 -25 4 -55 -64 -82 -188 -33 -145 -32 -369 1
-514 12 -55 25 -110 27 -121 6 -29 -7 -35 -48 -23 -19 5 -76 12 -127 14 -51 3
-97 7 -101 9 -4 3 -1 56 6 118 21 176 21 360 0 441 -57 214 -188 464 -340 644
l-69 82 31 58 c126 239 219 815 137 846 -18 7 -88 -41 -80 -55 4 -6 3 -8 -4
-4 -15 9 -195 -171 -186 -187 4 -6 3 -9 -1 -4 -10 9 -67 -42 -59 -54 2 -4 -4
-10 -13 -13 -22 -7 -105 -132 -162 -243 -23 -46 -41 -84 -41 -85 1 -2 -2 -11
-5 -21 -4 -9 -5 -28 -3 -40 7 -37 -14 -48 -53 -29 l-34 17 -3 205 c-2 115 1
227 7 255 31 150 35 160 65 191 17 17 55 39 84 48 96 32 307 133 304 145 -1 7
2 10 8 6 10 -6 41 9 110 53 60 39 71 46 113 82 97 83 136 123 130 133 -3 6 -1
7 5 3 14 -8 62 44 155 165 7 8 17 22 22 31 6 8 27 41 48 73 21 31 36 64 33 72
-3 8 -1 11 4 8 12 -7 55 84 94 199 33 96 34 183 1 178 -16 -2 -17 -1 -5 7 8 5
11 13 8 16 -8 8 -103 -22 -121 -38 -24 -23 -242 -126 -249 -119 -4 4 -3 25 2
47 47 196 65 543 33 612 -22 47 -38 48 -90 0z m70 -37 c21 -82 -5 -403 -48
-588 -17 -70 -19 -74 -70 -107 -28 -19 -58 -35 -65 -35 -13 0 -10 48 5 84 6
13 5 17 -2 13 -6 -4 -21 -34 -33 -67 -24 -63 -77 -120 -112 -120 -19 0 -26 34
-9 44 5 3 12 18 16 33 3 16 13 42 20 58 8 17 28 71 45 120 16 50 34 99 40 110
24 50 61 148 57 151 -12 12 -190 -410 -189 -449 1 -9 -2 -15 -6 -13 -8 5 -58
-123 -54 -137 1 -5 -2 -6 -7 -3 -5 3 -29 -16 -54 -43 -25 -27 -49 -46 -53 -42
-4 3 -4 -2 -1 -12 4 -10 3 -16 -2 -13 -4 3 -16 -3 -26 -14 -23 -25 -45 -26
-45 -2 0 23 49 194 60 207 4 6 13 28 20 50 7 22 32 79 56 128 23 48 39 85 34
82 -15 -9 -107 -196 -148 -301 -22 -54 -45 -130 -52 -169 -13 -78 -27 -115
-65 -175 -41 -65 -49 -53 -42 63 11 184 88 416 205 617 30 53 128 184 177 237
18 20 31 41 29 45 -3 5 -2 7 3 6 4 -2 51 42 103 96 159 166 181 187 193 183 6
-2 15 -18 20 -37z m348 -511 c11 -19 -12 -122 -47 -208 -70 -170 -171 -323
-306 -467 -35 -36 -62 -70 -61 -75 2 -5 -3 -6 -10 -4 -6 3 -26 -8 -44 -25 -17
-16 -61 -52 -97 -79 -35 -27 -62 -51 -60 -54 3 -3 -1 -4 -8 -4 -7 1 -51 -18
-98 -43 -108 -56 -209 -100 -232 -100 -21 0 -32 16 -17 26 8 5 9 3 4 -7 -5 -8
26 17 68 55 42 38 77 70 77 72 0 3 -28 -17 -62 -44 -92 -71 -128 -95 -135 -89
-7 7 36 79 54 90 7 5 10 13 7 19 -4 6 -3 9 2 6 5 -3 43 31 84 76 79 85 315
295 454 404 44 35 86 69 91 75 11 12 -37 -17 -63 -38 -9 -8 -55 -42 -101 -76
-47 -34 -89 -66 -95 -70 -6 -5 -29 -23 -51 -40 -108 -82 -292 -261 -288 -280
2 -5 -3 -9 -11 -9 -7 0 -21 -10 -29 -22 -9 -13 -29 -39 -46 -58 -17 -19 -29
-41 -26 -48 3 -7 0 -10 -5 -7 -5 3 -15 -3 -22 -15 -13 -21 -38 -28 -38 -10 0
11 28 86 51 138 8 18 18 32 22 32 5 0 5 5 2 10 -3 6 -1 10 4 10 6 0 11 5 11
11 0 14 80 117 154 198 33 36 48 55 32 41 -49 -43 -128 -129 -175 -190 -53
-69 -78 -67 -43 3 12 25 22 47 22 50 0 3 16 29 35 58 19 29 31 57 28 62 -3 6
-2 7 4 4 10 -7 80 72 75 85 -1 5 2 7 7 5 6 -1 36 23 68 54 105 100 305 249
335 249 5 0 6 6 2 13 -4 6 -4 9 1 5 4 -4 42 11 84 34 42 22 105 56 141 76 36
19 67 38 70 41 3 3 28 17 57 31 28 14 50 27 48 30 -2 3 13 6 33 7 20 1 39 -2
43 -8z m-1395 -243 c47 -54 57 -68 91 -121 38 -60 103 -189 103 -204 0 -6 5
-11 11 -11 5 0 7 -5 4 -10 -4 -6 -1 -17 5 -25 7 -8 9 -15 5 -15 -4 0 -2 -7 5
-15 7 -8 9 -15 5 -15 -4 0 -3 -6 3 -13 18 -21 45 -177 38 -221 -29 -194 -47
-240 -61 -154 -10 67 -65 268 -81 299 -8 16 -14 30 -13 31 4 6 -24 83 -32 93
-5 5 -2 -13 6 -40 14 -45 63 -245 85 -350 5 -22 9 -55 10 -74 0 -29 -2 -32
-15 -21 -8 7 -15 9 -15 4 -1 -11 -37 83 -57 149 -21 68 -27 52 -9 -21 32 -123
6 -117 -54 13 -51 111 -51 110 -66 200 -16 91 -20 555 -5 555 5 0 22 -15 37
-34z m461 -832 c-3 -3 -12 -4 -19 -1 -8 3 -5 6 6 6 11 1 17 -2 13 -5z m397
-192 c-1 -95 -35 -340 -51 -366 -4 -5 -7 -19 -9 -30 -4 -40 -87 -261 -109
-294 -21 -30 -24 -32 -38 -17 -10 9 -15 27 -12 43 14 89 15 113 5 107 -5 -3
-10 -14 -10 -24 0 -32 -22 -81 -36 -81 -7 0 -18 9 -24 21 -9 16 -6 39 15 107
45 148 64 197 117 307 14 30 15 35 3 20 -31 -38 -111 -219 -149 -338 -16 -49
-29 -72 -46 -80 -13 -7 -29 -27 -35 -46 -35 -105 -62 28 -31 150 7 27 10 49 6
49 -10 0 -40 -110 -40 -148 0 -42 -14 -47 -56 -21 l-36 22 7 55 c11 87 83 230
181 362 43 58 208 229 283 294 59 52 66 42 65 -92z m-1279 -472 c-7 -11 65
-20 245 -29 151 -8 174 -12 273 -45 59 -20 126 -47 147 -61 22 -14 42 -25 45
-25 7 0 109 -72 116 -83 3 -4 12 -7 20 -5 8 2 13 -2 12 -9 -1 -6 4 -17 12 -23
17 -14 21 -135 6 -145 -6 -3 -27 13 -48 36 -21 23 -42 46 -48 51 -5 5 -26 22
-45 39 -41 36 -128 102 -150 113 -8 4 3 -7 25 -25 64 -52 211 -203 240 -247
18 -28 25 -50 23 -74 l-3 -33 -40 40 c-22 22 -73 75 -113 118 -82 87 -142 131
-287 207 -118 63 -118 59 -4 -15 151 -97 227 -157 286 -224 32 -36 82 -91 110
-122 42 -44 54 -64 58 -98 4 -30 2 -43 -9 -47 -20 -8 -102 38 -148 82 -21 20
-41 34 -44 32 -9 -9 118 -119 162 -141 37 -18 44 -26 44 -50 0 -28 -1 -29 -36
-23 -44 9 -85 31 -160 89 -52 40 -76 65 -141 144 -8 10 -11 12 -7 4 5 -9 3
-12 -5 -7 -6 4 -9 12 -5 17 7 11 -77 120 -160 208 -34 35 -108 101 -166 148
-58 46 -112 90 -120 96 -37 30 -91 58 -100 52 -6 -4 -9 -2 -8 4 2 5 -6 16 -16
24 -24 17 -15 35 19 35 13 0 23 -4 20 -8z m1020 -231 c138 -112 276 -303 380
-524 44 -94 93 -247 101 -315 4 -40 10 -57 15 -48 6 9 9 9 9 1 0 -6 -4 -15
-10 -18 -5 -3 -10 -44 -10 -91 0 -91 -19 -230 -29 -217 -12 14 -29 76 -41 140
-13 76 -62 242 -79 269 -12 19 -12 19 -6 -1 20 -62 54 -209 60 -265 4 -36 10
-69 13 -75 11 -17 13 -95 3 -95 -25 0 -160 262 -221 428 -14 40 -30 69 -35 65
-4 -5 -5 -3 -2 3 4 7 0 34 -8 60 -9 27 -24 90 -35 139 -44 193 -53 230 -63
240 -7 7 -8 3 -3 -10 4 -10 16 -73 27 -140 11 -66 24 -134 30 -152 5 -17 12
-44 15 -60 20 -118 148 -411 242 -553 24 -36 42 -71 42 -81 0 -20 -58 7 -137
64 -99 71 -193 171 -231 247 -15 30 -30 57 -34 58 -5 2 -8 10 -8 18 0 9 -4 12
-10 9 -5 -3 -7 0 -4 9 3 8 -4 36 -15 63 -11 26 -27 89 -35 138 -8 50 -18 101
-20 114 -15 68 -7 556 10 609 7 23 39 12 89 -29z m863 -566 c10 -16 28 -53 41
-83 12 -30 26 -64 31 -75 9 -18 40 -158 40 -178 0 -5 5 -5 12 -1 7 4 8 3 4 -5
-6 -10 -3 -37 20 -141 3 -14 12 -68 20 -120 8 -52 17 -102 21 -110 3 -8 7 -22
9 -30 5 -25 64 -163 79 -187 20 -31 19 -43 -6 -43 -13 0 -18 -4 -13 -12 4 -7
3 -8 -5 -4 -6 4 -9 11 -6 16 8 13 -53 52 -67 44 -7 -4 -10 -4 -6 1 7 8 -28 45
-43 45 -5 0 -23 37 -33 70 -38 124 -38 122 -58 298 -13 120 -32 121 -23 2 7
-82 40 -272 55 -307 14 -34 -15 -37 -70 -7 -41 22 -50 33 -64 76 -9 28 -16 61
-16 75 0 13 -3 22 -7 20 -5 -3 -9 9 -9 26 -1 18 -4 59 -7 92 -19 181 -18 221
4 350 11 72 22 140 23 152 0 11 4 19 7 17 4 -2 10 7 13 21 8 33 30 32 54 -2z
m-660 -328 c-3 -3 -9 2 -12 12 -6 14 -5 15 5 6 7 -7 10 -15 7 -18z m-282 -199
c109 -4 157 -21 203 -70 30 -31 22 -42 -18 -28 -41 15 -40 1 2 -17 138 -62
176 -82 171 -95 -4 -10 -14 -12 -42 -5 -38 8 -170 34 -232 44 -43 7 -85 18
-173 44 -37 11 -65 16 -63 12 7 -11 254 -86 316 -96 19 -3 49 -10 65 -15 17
-5 49 -10 73 -12 23 -1 42 -6 42 -10 0 -4 0 -11 0 -15 1 -8 -13 -10 -102 -19
-37 -4 -66 -10 -64 -13 13 -21 -170 10 -222 38 -12 7 -28 9 -34 5 -6 -4 -8 -3
-5 3 3 5 -31 31 -76 57 -45 25 -100 57 -122 69 -22 13 -77 38 -122 57 -46 18
-83 39 -83 46 0 8 31 14 98 19 53 3 108 7 122 8 26 2 90 0 266 -7z m889 -313
c44 -17 111 -45 148 -63 76 -38 235 -160 227 -175 -3 -6 -9 -8 -15 -6 -5 2
-16 4 -22 4 -7 0 -13 4 -13 9 0 5 -10 12 -23 17 -13 5 -61 28 -108 50 -46 23
-73 32 -59 22 14 -11 42 -28 63 -37 20 -9 37 -21 37 -26 0 -4 5 -8 11 -8 21 0
119 -65 119 -78 0 -15 -35 -12 -140 13 -87 21 -193 44 -220 49 -14 2 -56 12
-95 21 -38 9 -122 25 -185 36 -63 10 -124 21 -135 24 -11 2 -42 7 -70 11 -53
7 -60 -1 -10 -10 17 -3 55 -13 85 -22 88 -25 161 -41 215 -49 28 -3 64 -10 80
-15 17 -5 71 -18 120 -29 331 -72 364 -88 175 -84 -69 1 -146 7 -171 13 -88
23 -102 20 -24 -5 59 -19 111 -28 198 -32 64 -3 117 -10 117 -14 0 -14 -64
-37 -138 -48 -143 -22 -341 -7 -445 34 -45 18 -50 18 -41 3 4 -7 3 -8 -5 -4
-6 4 -9 12 -6 17 4 5 -1 9 -9 9 -41 0 -505 259 -528 294 -4 6 -6 16 -5 21 7
19 137 48 327 71 19 3 67 9 105 13 39 5 135 8 215 6 132 -3 152 -6 225 -32z"/>
<path d="M1518 793 c6 -2 18 -2 25 0 6 3 1 5 -13 5 -14 0 -19 -2 -12 -5z"/>
<path d="M2231 4824 l-21 -27 22 -24 c26 -28 29 -28 49 0 16 21 15 24 -6 51
l-22 28 -22 -28z"/>
<path d="M2607 4843 c-2 -4 -7 -20 -11 -36 -4 -15 -25 -46 -48 -68 l-42 -41
24 -18 c13 -10 29 -17 34 -16 6 2 8 1 4 -1 -3 -2 0 -16 8 -31 8 -15 14 -39 14
-53 0 -37 28 -46 40 -13 6 14 10 30 10 36 0 19 42 69 66 78 33 13 30 24 -11
49 -24 14 -37 30 -41 51 -4 16 -10 28 -13 25 -4 -2 -7 5 -7 17 1 21 -18 36
-27 21z"/>
<path d="M2906 4795 c4 -8 10 -12 15 -9 14 8 10 24 -6 24 -9 0 -12 -6 -9 -15z"/>
<path d="M3171 4759 l-24 -19 23 -20 c29 -25 32 -25 49 1 11 19 10 24 -6 40
-17 17 -19 17 -42 -2z"/>
<path d="M3025 4730 c3 -5 8 -10 11 -10 2 0 4 5 4 10 0 6 -5 10 -11 10 -5 0
-7 -4 -4 -10z"/>
<path d="M2815 4720 c3 -5 8 -10 11 -10 2 0 4 5 4 10 0 6 -5 10 -11 10 -5 0
-7 -4 -4 -10z"/>
<path d="M3520 4710 c0 -5 5 -10 10 -10 6 0 10 5 10 10 0 6 -4 10 -10 10 -5 0
-10 -4 -10 -10z"/>
<path d="M2210 4670 c0 -5 7 -10 15 -10 8 0 15 5 15 10 0 6 -7 10 -15 10 -8 0
-15 -4 -15 -10z"/>
<path d="M2870 4640 c0 -5 5 -10 10 -10 6 0 10 5 10 10 0 6 -4 10 -10 10 -5 0
-10 -4 -10 -10z"/>
<path d="M2101 4564 c-11 -24 -10 -30 9 -48 l21 -21 20 24 c17 21 18 26 6 45
-21 31 -42 31 -56 0z" fill="#a11"/>
<path d="M2285 4580 c-3 -5 -1 -10 4 -10 6 0 11 5 11 10 0 6 -2 10 -4 10 -3 0
-8 -4 -11 -10z"/>
<path d="M3940 4520 c0 -5 5 -10 10 -10 6 0 10 5 10 10 0 6 -4 10 -10 10 -5 0
-10 -4 -10 -10z"/>
<path d="M2381 4476 l-23 -25 28 -25 29 -26 23 26 23 26 -26 24 c-14 13 -27
24 -29 24 -1 0 -13 -11 -25 -24z"/>
<path d="M4000 4430 c0 -5 5 -10 11 -10 5 0 7 5 4 10 -3 6 -8 10 -11 10 -2 0
-4 -4 -4 -10z"/>
<path d="M3825 4390 c-17 -19 -17 -22 -3 -37 19 -18 68 -11 68 11 0 12 -31 46
-42 46 -3 0 -13 -9 -23 -20z"/>
<path d="M4220 4351 c0 -5 5 -13 10 -16 6 -3 10 -2 10 4 0 5 -4 13 -10 16 -5
3 -10 2 -10 -4z"/>
<path d="M4076 4284 c-18 -26 -18 -26 6 -50 l24 -24 29 30 c19 20 24 30 14 30
-8 0 -21 9 -29 20 -18 25 -21 25 -44 -6z"/>
<path d="M3680 4280 c0 -5 7 -10 16 -10 8 0 12 5 9 10 -3 6 -10 10 -16 10 -5
0 -9 -4 -9 -10z"/>
<path d="M4466 4271 c-17 -19 -17 -21 2 -41 17 -18 24 -20 41 -11 26 14 27 33
3 54 -23 21 -25 21 -46 -2z"/>
<path d="M3820 4161 c0 -6 5 -13 10 -16 6 -3 10 1 10 9 0 9 -4 16 -10 16 -5 0
-10 -4 -10 -9z"/>
<path d="M4260 4112 c0 -41 -33 -147 -53 -172 -13 -17 -57 -47 -102 -70 -43
-22 -37 -41 17 -59 71 -24 95 -53 113 -139 8 -40 20 -83 26 -94 11 -21 12 -21
25 -3 8 10 14 33 14 51 0 18 4 35 9 38 4 3 11 19 14 34 9 44 54 91 114 117 29
13 53 28 53 34 0 5 -17 15 -37 21 -73 24 -110 75 -144 198 -24 89 -49 112 -49
44z"/>
<path d="M4580 4140 c0 -5 7 -10 16 -10 8 0 12 5 9 10 -3 6 -10 10 -16 10 -5
0 -9 -4 -9 -10z"/>
<path d="M3941 4074 c-20 -44 14 -69 54 -40 18 13 18 14 -1 39 -24 33 -38 34
-53 1z"/>
<path d="M3810 4070 c0 -5 5 -10 11 -10 5 0 7 5 4 10 -3 6 -8 10 -11 10 -2 0
-4 -4 -4 -10z"/>
<path d="M4120 4060 c0 -5 5 -10 10 -10 6 0 10 5 10 10 0 6 -4 10 -10 10 -5 0
-10 -4 -10 -10z"/>
<path d="M4611 4044 c-20 -25 -20 -28 -5 -46 21 -23 37 -23 57 0 14 16 13 19
-7 45 l-23 29 -22 -28z"/>
<path d="M3785 3944 c-9 -14 -15 -27 -13 -27 2 -1 13 -11 26 -21 21 -18 23
-18 42 -1 26 23 25 32 -2 56 -30 24 -33 24 -53 -7z"/>
<path d="M4795 3800 c-7 -12 2 -30 16 -30 5 0 9 9 9 20 0 21 -15 27 -25 10z"/>
<path d="M3830 3765 c0 -8 5 -15 10 -15 6 0 10 7 10 15 0 8 -4 15 -10 15 -5 0
-10 -7 -10 -15z"/>
<path d="M3700 3740 c0 -5 5 -10 10 -10 6 0 10 5 10 10 0 6 -4 10 -10 10 -5 0
-10 -4 -10 -10z"/>
<path d="M4896 3691 c-4 -5 -2 -12 3 -15 5 -4 12 -2 15 3 4 5 2 12 -3 15 -5 4
-12 2 -15 -3z"/>
<path d="M4630 3680 c0 -5 5 -10 10 -10 6 0 10 5 10 10 0 6 -4 10 -10 10 -5 0
-10 -4 -10 -10z" />
<path d="M3820 3635 l-21 -23 22 -20 c20 -19 24 -20 50 -6 37 19 37 35 0 56
-28 15 -30 15 -51 -7z"/>
<path d="M4070 3579 c0 -5 5 -7 10 -4 6 3 10 8 10 11 0 2 -4 4 -10 4 -5 0 -10
-5 -10 -11z"/>
<path d="M4125 3460 c3 -5 8 -10 11 -10 2 0 4 5 4 10 0 6 -5 10 -11 10 -5 0
-7 -4 -4 -10z"/>
<path d="M4885 3419 c-4 -6 -5 -13 -2 -16 7 -7 27 6 27 18 0 12 -17 12 -25 -2z"/>
<path d="M4749 3376 c-1 -9 -3 -20 -4 -26 -1 -5 -3 -18 -4 -28 -1 -12 -17 -26
-41 -37 -46 -21 -47 -36 -3 -47 24 -6 35 -18 47 -49 19 -46 27 -43 45 13 10
30 19 39 54 51 l42 14 -41 21 c-48 24 -61 39 -66 71 -3 28 -27 41 -29 17z"/>
<path d="M4980 3136 c0 -21 21 -31 30 -15 5 7 6 17 4 21 -9 14 -34 9 -34 -6z"/>
<path d="M4560 3088 c0 -4 7 -8 15 -8 8 0 15 4 15 8 0 5 -7 9 -15 9 -8 0 -15
-4 -15 -9z"/>
<path d="M4600 2990 c0 -5 5 -10 10 -10 6 0 10 5 10 10 0 6 -4 10 -10 10 -5 0
-10 -4 -10 -10z"/>
<path d="M1650 2715 l0 -215 65 0 65 0 0 65 c0 61 1 65 23 65 17 0 28 -14 51
-65 27 -60 31 -65 60 -65 32 0 104 15 112 23 3 2 -18 37 -46 78 -40 58 -47 75
-36 81 49 27 71 130 41 188 -26 50 -59 60 -205 60 l-130 0 0 -215z m198 113
c7 -7 12 -26 12 -43 0 -38 -16 -55 -52 -55 -27 0 -28 1 -28 55 0 54 1 55 28
55 15 0 33 -5 40 -12z"/>
<path d="M5025 2860 c-3 -5 -1 -10 4 -10 6 0 11 5 11 10 0 6 -2 10 -4 10 -3 0
-8 -4 -11 -10z"/>
<path d="M2165 2841 c-72 -18 -113 -70 -122 -154 -4 -41 -1 -64 15 -100 28
-64 69 -87 151 -87 121 0 181 61 181 182 0 79 -24 122 -83 148 -43 20 -89 23
-142 11z m84 -105 c7 -9 11 -40 9 -78 -3 -62 -4 -63 -33 -66 -19 -3 -33 2 -42
14 -13 18 -18 100 -7 128 8 20 57 21 73 2z" />
<path d="M3845 2836 c-54 -21 -85 -58 -85 -104 0 -51 23 -80 87 -108 30 -13
51 -29 48 -34 -9 -14 -21 -13 -67 10 -23 11 -47 20 -53 20 -12 0 -29 -99 -20
-109 12 -12 167 -13 195 -1 43 18 70 56 70 99 0 50 -23 79 -86 107 -30 13 -54
28 -54 34 0 14 14 13 57 -5 19 -8 41 -15 49 -15 15 0 31 87 18 100 -18 18
-117 21 -159 6z" fill="#a11"/>
<path d="M4880 2840 c0 -5 5 -10 10 -10 6 0 10 5 10 10 0 6 -4 10 -10 10 -5 0
-10 -4 -10 -10z"/>
<path d="M2430 2826 c0 -7 -3 -27 -6 -44 l-6 -31 76 -3 76 -3 -37 -40 c-20
-22 -52 -57 -72 -78 -29 -30 -36 -46 -37 -82 l-2 -45 149 0 149 0 0 48 0 47
-77 -4 -78 -3 78 85 c70 77 77 89 77 126 l0 41 -145 0 c-116 0 -145 -3 -145
-14z" />
<path d="M2773 2818 c4 -13 7 -90 7 -172 l0 -149 114 5 c127 6 173 23 190 70
13 36 0 77 -30 90 l-25 12 26 21 c35 31 34 83 -1 116 -24 22 -34 24 -156 27
l-131 4 6 -24z m177 -83 c0 -21 -5 -25 -30 -25 -25 0 -30 4 -30 25 0 21 5 25
30 25 25 0 30 -4 30 -25z m8 -132 c3 -20 -1 -23 -32 -23 -32 0 -36 3 -36 26 0
23 3 25 33 22 24 -2 33 -8 35 -25z" fill="#a11"/>
<path d="M3145 2670 l0 -171 110 3 110 3 3 48 3 47 -56 0 -57 0 7 120 8 120
-64 0 -64 0 0 -170z" fill="#a11"/>
<path d="M3440 2715 c50 -109 57 -131 52 -170 l-5 -45 62 0 61 0 0 53 c0 47 8
69 60 165 33 60 60 113 60 116 0 3 -26 6 -59 6 l-59 0 -23 -55 c-13 -30 -28
-53 -34 -52 -5 2 -18 27 -29 55 l-19 52 -62 0 -63 0 58 -125z" fill="#a11"/>
<path d="M4081 2670 l1 -170 59 0 58 0 3 73 3 72 38 -74 39 -74 65 6 c72 7 82
11 68 31 -6 8 -32 43 -58 80 l-49 66 46 73 c25 41 46 77 46 80 0 4 -27 7 -59
7 l-59 0 -39 -66 -38 -66 -3 66 -3 66 -59 0 -60 0 1 -170z" fill="#a11"/>
<path d="M5125 2720 c3 -5 10 -10 16 -10 5 0 9 5 9 10 0 6 -7 10 -16 10 -8 0
-12 -4 -9 -10z"/>
<path d="M4967 2614 c-4 -4 -7 -19 -7 -33 0 -48 -12 -70 -46 -86 -19 -9 -34
-19 -34 -23 0 -5 16 -14 35 -21 30 -10 37 -20 47 -57 14 -52 25 -52 43 -1 16
48 33 67 57 67 10 0 16 4 13 10 -3 6 1 7 9 4 34 -13 13 13 -23 29 -37 17 -55
43 -63 91 -3 21 -20 31 -31 20z"/>
<path d="M4565 2330 c3 -5 10 -10 16 -10 5 0 9 5 9 10 0 6 -7 10 -16 10 -8 0
-12 -4 -9 -10z"/>
<path d="M2300 2175 l0 -125 75 0 c60 0 75 3 75 15 0 12 -13 15 -55 15 l-55 0
0 40 0 40 45 0 c33 0 45 4 45 15 0 11 -12 15 -45 15 l-45 0 0 40 0 40 55 0
c42 0 55 3 55 15 0 12 -15 15 -75 15 l-75 0 0 -125z"/>
<path d="M2520 2175 c0 -103 3 -125 15 -125 11 0 15 20 17 96 l3 96 65 -96
c91 -135 100 -132 100 29 0 103 -3 125 -15 125 -11 0 -15 -20 -17 -95 l-3 -95
-64 95 c-42 64 -69 95 -82 95 -18 0 -19 -9 -19 -125z"/>
<path d="M2870 2278 c-5 -13 -27 -69 -49 -125 -34 -88 -37 -103 -22 -103 9 0
21 13 28 30 11 29 14 30 71 30 58 0 60 -1 66 -30 3 -18 12 -30 21 -30 21 0 19
12 -24 135 -31 89 -42 111 -60 113 -14 2 -24 -4 -31 -20z m54 -82 c9 -27 16
-51 16 -53 0 -2 -20 -3 -45 -3 l-44 0 21 60 c12 33 25 57 29 53 3 -5 14 -30
23 -57z"/>
<path d="M3072 2206 c-16 -125 -15 -156 2 -156 10 0 15 24 20 90 4 50 11 90
14 90 4 0 21 -34 37 -75 20 -49 36 -75 46 -75 10 0 27 29 49 82 32 77 34 80
41 52 4 -16 10 -59 14 -96 5 -52 10 -68 22 -68 13 0 14 9 10 48 -4 26 -9 82
-13 125 -6 70 -9 77 -28 77 -16 0 -26 -10 -35 -36 -7 -20 -23 -59 -36 -87
l-22 -51 -22 48 c-11 27 -26 66 -33 87 -8 30 -16 39 -33 39 -20 0 -23 -8 -33
-94z"/>
<path d="M3410 2175 l0 -125 75 0 c60 0 75 3 75 15 0 12 -13 15 -60 15 l-60 0
0 40 0 40 50 0 c38 0 50 4 50 15 0 11 -12 15 -50 15 l-50 0 0 40 0 40 60 0
c47 0 60 3 60 15 0 12 -15 15 -75 15 l-75 0 0 -125z"/>
<path d="M3622 2175 l1 -125 67 0 c53 0 67 3 67 15 0 11 -12 15 -49 15 l-48 0
0 110 c0 103 -1 110 -20 110 -19 0 -20 -6 -18 -125z"/>
<path d="M4730 2280 c0 -5 7 -10 16 -10 8 0 12 5 9 10 -3 6 -10 10 -16 10 -5
0 -9 -4 -9 -10z"/>
<path d="M5010 2140 c0 -5 5 -10 11 -10 5 0 7 5 4 10 -3 6 -8 10 -11 10 -2 0
-4 -4 -4 -10z"/>
<path d="M4985 2051 c-3 -5 -1 -12 5 -16 5 -3 10 1 10 9 0 18 -6 21 -15 7z"/>
<path d="M4866 1993 c-3 -4 -6 -19 -6 -34 0 -41 -9 -57 -46 -80 -40 -24 -44
-46 -10 -55 32 -8 57 -36 65 -74 9 -43 23 -39 36 12 7 31 19 48 45 66 46 30
47 38 11 56 -36 19 -61 53 -61 82 0 21 -22 39 -34 27z"/>
<path d="M4640 1973 c0 -7 7 -13 15 -13 8 0 15 6 15 13 0 8 -7 14 -15 14 -8 0
-15 -6 -15 -14z"/>
<path d="M4606 1861 c-4 -5 -2 -12 3 -15 5 -4 12 -2 15 3 4 5 2 12 -3 15 -5 4
-12 2 -15 -3z"/>
<path d="M4656 1741 c-4 -5 -2 -12 3 -15 5 -4 12 -2 15 3 4 5 2 12 -3 15 -5 4
-12 2 -15 -3z"/>
<path d="M4790 1610 c0 -5 5 -10 10 -10 6 0 10 5 10 10 0 6 -4 10 -10 10 -5 0
-10 -4 -10 -10z"/>
<path d="M4520 1600 c0 -5 5 -10 10 -10 6 0 10 5 10 10 0 6 -4 10 -10 10 -5 0
-10 -4 -10 -10z"/>
<path d="M4705 1579 c-10 -15 3 -25 16 -12 7 7 7 13 1 17 -6 3 -14 1 -17 -5z"/>
<path d="M4535 1520 c3 -5 8 -10 11 -10 2 0 4 5 4 10 0 6 -5 10 -11 10 -5 0
-7 -4 -4 -10z"/>
<path d="M4690 1460 c0 -5 5 -10 11 -10 5 0 7 5 4 10 -3 6 -8 10 -11 10 -2 0
-4 -4 -4 -10z"/>
<path d="M4345 1271 c-3 -5 -1 -12 5 -16 5 -3 10 1 10 9 0 18 -6 21 -15 7z"/>
<path d="M4189 1203 c-2 -31 -4 -38 -16 -59 -7 -12 -26 -27 -43 -32 -39 -14
-38 -25 5 -51 20 -11 42 -36 50 -53 21 -52 27 -52 52 1 14 33 33 56 53 66 16
8 30 18 30 20 0 3 -17 13 -37 22 -29 14 -41 28 -53 61 -14 42 -39 57 -41 25z"/>
<path d="M4430 1051 c0 -6 5 -13 10 -16 6 -3 10 1 10 9 0 9 -4 16 -10 16 -5 0
-10 -4 -10 -9z"/>
<path d="M3970 985 c0 -8 6 -15 13 -15 8 0 14 7 14 15 0 8 -6 15 -14 15 -7 0
-13 -7 -13 -15z"/>
<path d="M4055 939 c-4 -6 -5 -13 -2 -16 7 -7 27 6 27 18 0 12 -17 12 -25 -2z"/>
<path d="M3745 890 c3 -5 10 -10 16 -10 5 0 9 5 9 10 0 6 -7 10 -16 10 -8 0
-12 -4 -9 -10z"/>
<path d="M3900 830 c0 -5 5 -10 10 -10 6 0 10 5 10 10 0 6 -4 10 -10 10 -5 0
-10 -4 -10 -10z"/>
</g>
</svg>